<?xml version="1.0" standalone="no"?><svg xmlns="http://www.w3.org/2000/svg" viewBox="0 0 1440 320"><path fill="#273036" fill-opacity="1" d="M0,32L18.5,42.7C36.9,53,74,75,111,74.7C147.7,75,185,53,222,64C258.5,75,295,117,332,122.7C369.2,128,406,96,443,117.3C480,139,517,213,554,240C590.8,267,628,245,665,218.7C701.5,192,738,160,775,160C812.3,160,849,192,886,202.7C923.1,213,960,203,997,165.3C1033.8,128,1071,64,1108,85.3C1144.6,107,1182,213,1218,256C1255.4,299,1292,277,1329,234.7C1366.2,192,1403,128,1422,96L1440,64L1440,320L1421.5,320C1403.1,320,1366,320,1329,320C1292.3,320,1255,320,1218,320C1181.5,320,1145,320,1108,320C1070.8,320,1034,320,997,320C960,320,923,320,886,320C849.2,320,812,320,775,320C738.5,320,702,320,665,320C627.7,320,591,320,554,320C516.9,320,480,320,443,320C406.2,320,369,320,332,320C295.4,320,258,320,222,320C184.6,320,148,320,111,320C73.8,320,37,320,18,320L0,320Z"></path></svg>