<?xml version="1.0" standalone="no"?><svg xmlns="http://www.w3.org/2000/svg" viewBox="0 0 1440 320"><path fill="#5000ca" fill-opacity="1" d="M0,288L21.8,245.3C43.6,203,87,117,131,112C174.5,107,218,181,262,197.3C305.5,213,349,171,393,170.7C436.4,171,480,213,524,240C567.3,267,611,277,655,240C698.2,203,742,117,785,74.7C829.1,32,873,32,916,80C960,128,1004,224,1047,234.7C1090.9,245,1135,171,1178,154.7C1221.8,139,1265,181,1309,202.7C1352.7,224,1396,224,1418,224L1440,224L1440,0L1418.2,0C1396.4,0,1353,0,1309,0C1265.5,0,1222,0,1178,0C1134.5,0,1091,0,1047,0C1003.6,0,960,0,916,0C872.7,0,829,0,785,0C741.8,0,698,0,655,0C610.9,0,567,0,524,0C480,0,436,0,393,0C349.1,0,305,0,262,0C218.2,0,175,0,131,0C87.3,0,44,0,22,0L0,0Z"></path></svg>