<?xml version="1.0" standalone="no"?><svg xmlns="http://www.w3.org/2000/svg" viewBox="0 0 1440 320"><path fill="#000b76" fill-opacity="1" d="M0,224L26.7,197.3C53.3,171,107,117,160,112C213.3,107,267,149,320,149.3C373.3,149,427,107,480,80C533.3,53,587,43,640,37.3C693.3,32,747,32,800,42.7C853.3,53,907,75,960,90.7C1013.3,107,1067,117,1120,106.7C1173.3,96,1227,64,1280,48C1333.3,32,1387,32,1413,32L1440,32L1440,320L1413.3,320C1386.7,320,1333,320,1280,320C1226.7,320,1173,320,1120,320C1066.7,320,1013,320,960,320C906.7,320,853,320,800,320C746.7,320,693,320,640,320C586.7,320,533,320,480,320C426.7,320,373,320,320,320C266.7,320,213,320,160,320C106.7,320,53,320,27,320L0,320Z"></path></svg>