<?xml version="1.0" standalone="no"?><svg xmlns="http://www.w3.org/2000/svg" viewBox="0 0 1440 320"><path fill="#000b76" fill-opacity="1" d="M0,224L26.7,192C53.3,160,107,96,160,96C213.3,96,267,160,320,197.3C373.3,235,427,245,480,224C533.3,203,587,149,640,144C693.3,139,747,181,800,208C853.3,235,907,245,960,250.7C1013.3,256,1067,256,1120,250.7C1173.3,245,1227,235,1280,202.7C1333.3,171,1387,117,1413,90.7L1440,64L1440,0L1413.3,0C1386.7,0,1333,0,1280,0C1226.7,0,1173,0,1120,0C1066.7,0,1013,0,960,0C906.7,0,853,0,800,0C746.7,0,693,0,640,0C586.7,0,533,0,480,0C426.7,0,373,0,320,0C266.7,0,213,0,160,0C106.7,0,53,0,27,0L0,0Z"></path></svg>